<svg width="150" height="83" viewBox="0 0 150 83" fill="none" xmlns="http://www.w3.org/2000/svg">
<path fill-rule="evenodd" clip-rule="evenodd" d="M76.1678 76.8835C74.6624 71.2801 73.8261 63.6127 73.8261 55.1801C73.8261 51.1788 73.8688 45.6307 75.0946 35.436C76.3612 25.158 78.6387 15.5046 81.9273 6.47589C81.0714 5.79816 79.8678 5.72477 78.3162 6.25569C76.8268 6.76537 75.7636 7.40651 75.1267 8.17907C74.8425 8.54366 74.551 8.91589 74.2534 9.29603L74.2533 9.2961C71.9265 12.2675 69.2215 15.7218 66.6933 19.7818C63.7142 24.566 61.6124 28.0298 58.8843 33.5958C55.8889 39.7069 53.5859 45.1565 51.5332 50.0137C50.5548 52.3289 49.6332 54.5096 48.7207 56.5631C47.3272 59.6988 45.6778 63.966 44.5047 67.0009L44.5047 67.0011C43.6604 69.1853 43.0628 70.7312 42.9849 70.7579C43.047 70.7366 44.6169 66.0051 47.6948 56.5631C56.9089 28.3827 57.3344 10.9412 55.0408 4.23859C53.9365 1.01143 49.3635 -1.08537 44.4607 0.592342C40.4888 1.9515 30.5415 7.23642 23.8902 14.0892C13.4757 24.8191 9.60186 31.3503 6.34003 36.954C3.52213 41.795 0.670751 49.267 0.119123 55.9384C-0.432503 62.6098 1.00429 66.0275 2.93857 68.9229C4.16443 70.7579 7.9032 72.4778 10.784 72.4778C13.6647 72.4778 17.7031 71.0151 20.9584 68.6164C25.6166 65.1841 29.0596 61.9704 31.8188 57.5881C34.5781 53.2058 36.2043 48.3642 36.0799 45.7722C35.9933 45.3166 35.8259 45.1312 35.5777 45.2162C35.3294 45.3011 34.6321 46.3023 33.4857 48.2198C30.3145 53.742 26.5877 57.2358 22.3055 58.7012C17.713 60.2727 14.8327 59.3518 13.6647 55.9384C12.4754 52.463 12.9128 47.4604 14.9766 40.9306C17.0193 34.3387 19.9904 28.4344 23.8902 23.2175C31.1148 13.5352 37.3647 7.79146 42.6399 5.98632C46.9842 4.49974 49.5598 4.9356 50.3668 7.29392C51.8321 11.5761 49.8634 23.5503 44.4606 43.2164L35.3498 75.2439C34.976 77.7983 35.0227 79.7581 35.4899 81.1235C35.9571 82.4888 36.7182 82.991 37.7733 82.63C37.9003 82.5865 38.0435 82.5428 38.201 82.4948C39.7361 82.0267 42.6387 81.1416 45.3657 75.9278C45.3657 75.9278 48.9777 67.7676 51.7796 61.3237C53.7534 56.7843 55.0101 53.788 56.4749 50.2955C57.4093 48.0675 58.4284 45.6377 59.7724 42.4766C61.1037 39.3453 63.3828 34.4792 66.3024 28.9905C68.5722 24.7235 72.8981 17.469 72.8981 17.469C72.8981 17.469 69.4954 28.3701 68.5179 38.4799C67.6468 47.4886 67.76 52.541 67.8613 57.0614L67.8613 57.0636C67.8737 57.6153 67.8858 58.1591 67.896 58.7012C68.0282 65.7336 68.9913 83.9575 79.6531 82.6299C81.2766 50.4207 82.6171 32.9217 90.6697 19.7818C101.488 2.12862 139.529 10.8602 139.529 27.7047V52.5578C139.529 68.6271 133.358 79.1804 114.252 79.1804C108.647 79.1804 108.647 71.9119 108.647 54.3957C108.647 36.8795 108.647 36.8795 115.04 36.8795L115.04 33.8541L92.6083 33.8541L92.6083 36.8795C98.1767 36.8795 99.4451 36.8795 99.4451 54.3957C99.4451 79.1804 99.1695 79.1803 90.1231 79.1803L90.1231 82.63L117.14 82.63C145.973 82.63 150 68.6588 150 52.5578L150 27.6658C150 4.23859 112.124 1.76648 98.631 8.17907C98.4097 8.2842 98.1817 8.39119 97.9474 8.50112C89.7485 12.3474 73.8912 19.7864 76.1678 76.8835ZM112.848 23.3519C112.848 28.196 108.921 32.1229 104.077 32.1229C99.2331 32.1229 95.3062 28.196 95.3062 23.3519C95.3062 18.5078 99.2331 14.5809 104.077 14.5809C108.921 14.5809 112.848 18.5078 112.848 23.3519ZM103.58 74.9678V74.9912L106 75.6211V76.793L101.772 77.8828V76.5996L104.444 76.1133V76.0898L101.772 75.46V74.499L104.444 73.8691V73.8457L101.772 73.3594V72.0762L106 73.166V74.3379L103.58 74.9678ZM106 70.5176V71.7188H101.772V70.5469H103.401V70.5234C102.947 70.3623 102.701 70.0078 102.701 69.5156C102.701 68.7891 103.152 68.3965 103.929 68.3965H106V69.5977H104.195C103.87 69.5977 103.671 69.7559 103.671 70.0576C103.671 70.3564 103.891 70.5176 104.192 70.5176H106ZM104.966 66.8906C105.142 66.8906 105.244 66.7471 105.244 66.5361C105.244 66.2695 105.095 66.0234 104.857 66.0234H104.647L104.682 66.5332C104.699 66.7617 104.808 66.8906 104.966 66.8906ZM105.566 66.0469C105.883 66.2168 106.047 66.6094 106.047 66.9844C106.047 67.5732 105.643 68.0742 105.06 68.0742C104.439 68.0742 104.102 67.5967 104.049 66.7324L104.005 66.0234H103.847C103.63 66.0234 103.513 66.1875 103.513 66.4131C103.513 66.6592 103.647 66.8174 103.812 66.835V67.9072C103.12 67.8779 102.684 67.292 102.684 66.3486C102.684 65.4521 103.132 64.8516 103.788 64.8516H106V66.0234H105.566V66.0469ZM102.766 64.1074H102.057V62.9062H102.766V62.3379H103.636V62.9062H104.831C105.033 62.9062 105.139 62.7891 105.139 62.543C105.139 62.4521 105.136 62.4082 105.124 62.3379H105.956C105.98 62.4521 106 62.6045 106 62.833C106 63.7471 105.736 64.1074 105.098 64.1074H103.636V64.5352H102.766V64.1074ZM101.772 59.4902H106V60.7324H101.772V59.4902ZM106 57.7617H101.772V55.9541C101.772 54.6709 102.502 53.918 103.855 53.918C105.209 53.918 106 54.6738 106 55.9541V57.7617ZM102.76 56.1299V56.5195H105.013V56.1299C105.013 55.5088 104.635 55.1836 103.855 55.1836C103.144 55.1836 102.76 55.5352 102.76 56.1299ZM103.987 51.3984C103.697 51.4189 103.51 51.6211 103.51 51.9023C103.51 52.1748 103.709 52.3828 103.987 52.4062V51.3984ZM105.259 51.873C105.259 51.6299 105.145 51.4336 104.951 51.3633V50.2939C105.648 50.3936 106.082 51.0029 106.082 51.8906C106.082 52.9512 105.452 53.5811 104.4 53.5811C103.343 53.5811 102.684 52.9453 102.684 51.9287C102.684 50.9268 103.322 50.2793 104.313 50.2793H104.638V52.4238H104.714C105.03 52.4238 105.259 52.1953 105.259 51.873ZM102.684 48.3135C102.684 47.373 103.229 46.752 104.105 46.7373V47.8301C103.776 47.8535 103.577 48.0352 103.577 48.293C103.577 48.6094 103.858 48.7793 104.38 48.7793C104.907 48.7793 105.189 48.6123 105.189 48.293C105.189 48.0234 105.001 47.8506 104.682 47.8301V46.7373C105.558 46.749 106.082 47.3467 106.082 48.3076C106.082 49.3564 105.446 49.9951 104.38 49.9951C103.325 49.9951 102.684 49.3535 102.684 48.3135ZM102.019 45.1816C102.341 45.1816 102.587 45.4395 102.587 45.7793C102.587 46.1191 102.341 46.377 102.019 46.377C101.696 46.377 101.45 46.1191 101.45 45.7793C101.45 45.4395 101.696 45.1816 102.019 45.1816ZM105.44 42.5801C105.78 42.6885 106.047 43.0635 106.047 43.5498C106.047 44.3467 105.429 44.8096 104.374 44.8096C103.334 44.8096 102.719 44.335 102.719 43.5293C102.719 43.0576 102.985 42.7061 103.349 42.5801V42.5566H101.772V41.3555H106V42.5566H105.44V42.5801ZM106 45.1787V46.3799H102.766V45.1787H106ZM104.386 42.5508C103.923 42.5508 103.645 42.7441 103.645 43.0664C103.645 43.3887 103.926 43.5791 104.383 43.5791C104.846 43.5791 105.121 43.3916 105.121 43.0664C105.121 42.7412 104.852 42.5508 104.386 42.5508ZM103.987 38.8008C103.697 38.8213 103.51 39.0234 103.51 39.3047C103.51 39.5771 103.709 39.7852 103.987 39.8086V38.8008ZM105.259 39.2754C105.259 39.0322 105.145 38.8359 104.951 38.7656V37.6963C105.648 37.7959 106.082 38.4053 106.082 39.293C106.082 40.3535 105.452 40.9834 104.4 40.9834C103.343 40.9834 102.684 40.3477 102.684 39.3311C102.684 38.3291 103.322 37.6816 104.313 37.6816H104.638V39.8262H104.714C105.03 39.8262 105.259 39.5977 105.259 39.2754Z" fill="#7878AB"/>
</svg>
